<svg id="account_circle_white_48dp_1_" data-name="account_circle_white_48dp (1)" xmlns="http://www.w3.org/2000/svg" width="58" height="58" viewBox="0 0 58 58">
  <path id="Path_5" data-name="Path 5" d="M0,0H58V58H0Z" fill="none"/>
  <path id="Path_6" data-name="Path 6" d="M26.167,2A24.167,24.167,0,1,0,50.333,26.167,24.175,24.175,0,0,0,26.167,2Zm0,7.25a7.25,7.25,0,1,1-7.25,7.25A7.24,7.24,0,0,1,26.167,9.25Zm0,34.317a17.4,17.4,0,0,1-14.5-7.782c.073-4.809,9.667-7.443,14.5-7.443,4.809,0,14.427,2.634,14.5,7.443A17.4,17.4,0,0,1,26.167,43.567Z" transform="translate(2.833 2.833)" fill="#777575"/>
</svg>
